<?xml version="1.0" standalone="no"?>
<!DOCTYPE svg PUBLIC "-//W3C//DTD SVG 20010904//EN"
 "http://www.w3.org/TR/2001/REC-SVG-20010904/DTD/svg10.dtd">
<svg version="1.0" xmlns="http://www.w3.org/2000/svg"
 width="260.000000pt" height="260.000000pt" viewBox="0 0 260.000000 260.000000"
 preserveAspectRatio="xMidYMid meet">
<metadata>
Created by potrace 1.11, written by Peter Selinger 2001-2013
</metadata>
<g transform="translate(0.000000,260.000000) scale(0.100000,-0.100000)"
fill="#000000" stroke="none">
<path d="M0 1300 l0 -1300 1300 0 1300 0 0 1300 0 1300 -1300 0 -1300 0 0
-1300z m629 58 c75 -213 139 -389 142 -392 3 -3 69 171 146 387 l141 392 116
3 116 3 0 -501 0 -500 -82 0 -81 0 6 411 c3 226 4 409 2 407 -3 -3 -162 -440
-287 -790 -10 -27 -12 -28 -82 -28 l-73 0 -128 373 c-71 204 -136 391 -145
414 -15 39 -15 13 -12 -373 l4 -414 -76 0 -76 0 0 500 0 501 117 -3 117 -3
135 -387z m1091 187 l0 -205 230 0 230 0 0 205 0 205 80 0 80 0 0 -500 0 -500
-80 0 -80 0 0 225 0 225 -230 0 -230 0 0 -225 0 -225 -85 0 -85 0 0 500 0 500
85 0 85 0 0 -205z"/>
</g>
</svg>
